<svg width="187" height="48" viewBox="0 0 187 48" fill="none" xmlns="http://www.w3.org/2000/svg">
<path fill-rule="evenodd" clip-rule="evenodd" d="M48 24C48 37.2548 37.2548 48 24 48C10.7452 48 0 37.2548 0 24C0 10.7452 10.7452 0 24 0C37.2548 0 48 10.7452 48 24ZM36 24C36 30.6274 30.6274 36 24 36C17.3726 36 12 30.6274 12 24C12 17.3726 17.3726 12 24 12C30.6274 12 36 17.3726 36 24ZM24 32C28.4183 32 32 28.4183 32 24C32 19.5817 28.4183 16 24 16C19.5817 16 16 19.5817 16 24C16 28.4183 19.5817 32 24 32Z" fill="white"/>
<path d="M65.2 36.32C63.664 36.32 62.2933 35.9787 61.088 35.296C59.8827 34.6133 58.9333 33.6373 58.24 32.368C57.5573 31.088 57.216 29.5627 57.216 27.792C57.216 26.0853 57.5467 24.5813 58.208 23.28C58.8693 21.9787 59.7973 20.9653 60.992 20.24C62.1973 19.504 63.6 19.136 65.2 19.136C66.5867 19.136 67.7813 19.4187 68.784 19.984C69.7973 20.5493 70.592 21.312 71.168 22.272C71.7547 23.232 72.0907 24.304 72.176 25.488H68.288C68.2133 25.0507 68.0587 24.6187 67.824 24.192C67.5893 23.7547 67.2587 23.3973 66.832 23.12C66.4053 22.832 65.872 22.688 65.232 22.688C64.144 22.688 63.2587 23.1093 62.576 23.952C61.904 24.784 61.568 26.0533 61.568 27.76C61.568 29.3707 61.8987 30.6507 62.56 31.6C63.2213 32.5387 64.144 33.008 65.328 33.008C65.9573 33.008 66.48 32.8533 66.896 32.544C67.3227 32.2347 67.6533 31.8667 67.888 31.44C68.1227 31.0027 68.272 30.5973 68.336 30.224H72.128C72.0533 31.3653 71.7227 32.4 71.136 33.328C70.5493 34.2453 69.7493 34.976 68.736 35.52C67.7333 36.0533 66.5547 36.32 65.2 36.32ZM79.6783 36.32C78.6329 36.32 77.6836 36.1227 76.8303 35.728C75.9876 35.3333 75.3209 34.7627 74.8303 34.016C74.3396 33.2587 74.0943 32.3413 74.0943 31.264C74.0943 29.4507 74.7716 28.0747 76.1263 27.136C77.4809 26.1867 79.6196 25.696 82.5423 25.664L84.6223 25.632V24.64C84.6223 23.8827 84.3983 23.3013 83.9503 22.896C83.5129 22.48 82.8249 22.2773 81.8863 22.288C81.2143 22.2987 80.5689 22.4587 79.9503 22.768C79.3423 23.0773 78.9209 23.616 78.6863 24.384H74.7983C74.8623 23.1893 75.2089 22.208 75.8383 21.44C76.4783 20.6613 77.3369 20.0853 78.4143 19.712C79.4916 19.328 80.7236 19.136 82.1103 19.136C83.7956 19.136 85.1503 19.3493 86.1743 19.776C87.1983 20.192 87.9396 20.7947 88.3983 21.584C88.8676 22.3627 89.1023 23.2907 89.1023 24.368V36H85.1983L84.8143 33.152C84.2489 34.3467 83.5396 35.1733 82.6863 35.632C81.8436 36.0907 80.8409 36.32 79.6783 36.32ZM81.2623 33.248C81.6783 33.248 82.0836 33.1733 82.4783 33.024C82.8836 32.864 83.2463 32.656 83.5663 32.4C83.8863 32.1333 84.1369 31.8347 84.3183 31.504C84.5103 31.1733 84.6116 30.832 84.6223 30.48V28.032L82.9423 28.064C82.1636 28.0747 81.4383 28.1707 80.7663 28.352C80.0943 28.5227 79.5503 28.8053 79.1343 29.2C78.7289 29.5947 78.5263 30.128 78.5263 30.8C78.5263 31.568 78.7876 32.1707 79.3103 32.608C79.8436 33.0347 80.4943 33.248 81.2623 33.248ZM91.1343 36V33.392L99.2943 22.72H91.5503V19.456H104.958V22.064L96.7823 32.736H105.006V36H91.1343ZM107.953 36V12.864H112.801V23.456L121.233 12.864H126.593L119.569 21.824L127.441 36H122.353L116.225 25.232L112.801 29.36V36H107.953ZM129.659 36V19.456H134.235V21.792C134.736 21.0667 135.408 20.4427 136.251 19.92C137.104 19.3973 138.176 19.136 139.467 19.136C140.032 19.136 140.608 19.2373 141.195 19.44C141.781 19.6427 142.331 19.9413 142.843 20.336C143.365 20.72 143.787 21.2053 144.107 21.792C144.64 21.0347 145.339 20.4053 146.203 19.904C147.077 19.392 148.048 19.136 149.115 19.136C149.733 19.136 150.357 19.2373 150.987 19.44C151.627 19.6427 152.213 19.9733 152.747 20.432C153.28 20.8907 153.707 21.504 154.027 22.272C154.357 23.0293 154.523 23.968 154.523 25.088V36H149.851V25.664C149.851 25.0027 149.717 24.4747 149.451 24.08C149.195 23.6747 148.864 23.3867 148.459 23.216C148.064 23.0347 147.643 22.944 147.195 22.944C146.779 22.944 146.357 23.0293 145.931 23.2C145.504 23.36 145.141 23.6213 144.843 23.984C144.544 24.3467 144.395 24.8213 144.395 25.408V36H139.739V25.248C139.739 24.7467 139.605 24.3253 139.339 23.984C139.072 23.6427 138.736 23.3867 138.331 23.216C137.936 23.0347 137.531 22.944 137.115 22.944C136.688 22.944 136.261 23.0347 135.835 23.216C135.408 23.3867 135.051 23.6587 134.763 24.032C134.475 24.3947 134.331 24.8533 134.331 25.408V36H129.659ZM165.275 36.32C163.632 36.32 162.187 35.9787 160.939 35.296C159.702 34.6027 158.736 33.6267 158.043 32.368C157.35 31.1093 157.003 29.6267 157.003 27.92C157.003 26.2667 157.318 24.7787 157.947 23.456C158.587 22.1227 159.504 21.072 160.699 20.304C161.894 19.5253 163.339 19.136 165.035 19.136C166.72 19.136 168.134 19.4933 169.275 20.208C170.416 20.912 171.28 21.8987 171.867 23.168C172.454 24.4267 172.747 25.8827 172.747 27.536V28.8H161.627C161.627 29.6427 161.766 30.3787 162.043 31.008C162.32 31.6267 162.72 32.1067 163.243 32.448C163.776 32.7787 164.416 32.944 165.163 32.944C165.963 32.944 166.662 32.7733 167.259 32.432C167.856 32.0907 168.278 31.5307 168.523 30.752H172.731C172.539 31.9253 172.07 32.928 171.323 33.76C170.576 34.592 169.67 35.2267 168.603 35.664C167.536 36.1013 166.427 36.32 165.275 36.32ZM161.627 26.016H168.379C168.379 25.3547 168.251 24.7467 167.995 24.192C167.75 23.6373 167.376 23.2 166.875 22.88C166.384 22.56 165.766 22.4 165.019 22.4C164.304 22.4 163.691 22.576 163.179 22.928C162.678 23.2693 162.288 23.7173 162.011 24.272C161.744 24.8267 161.616 25.408 161.627 26.016ZM175.473 36V19.456H179.969V23.376C180.235 22.5333 180.609 21.7973 181.089 21.168C181.579 20.528 182.171 20.032 182.865 19.68C183.558 19.3173 184.342 19.136 185.217 19.136C185.366 19.136 185.505 19.1467 185.633 19.168C185.771 19.1787 185.873 19.2 185.937 19.232V23.68C185.841 23.6373 185.723 23.6107 185.585 23.6C185.457 23.5893 185.339 23.5787 185.233 23.568C184.315 23.4933 183.531 23.52 182.881 23.648C182.23 23.776 181.702 23.9947 181.297 24.304C180.891 24.6133 180.598 24.992 180.417 25.44C180.235 25.888 180.145 26.3893 180.145 26.944V36H175.473Z" fill="white"/>
</svg>
